<svg id="Layer_1" data-name="Layer 1" xmlns="http://www.w3.org/2000/svg" xmlns:xlink="http://www.w3.org/1999/xlink" viewBox="0 0 467 467"><defs><style>.cls-1{fill:#4fd3fc;}.cls-2{fill:#fff;}.cls-3{fill:url(#linear-gradient);}</style><linearGradient id="linear-gradient" x1="183.23" y1="187.99" x2="364.64" y2="187.99" gradientUnits="userSpaceOnUse"><stop offset="0" stop-color="#420dab"/><stop offset="1" stop-color="#f266f2"/><stop offset="1" stop-color="#f61019"/></linearGradient></defs><circle class="cls-1" cx="233.5" cy="233.5" r="233.5"/><path class="cls-1" d="M482,250A233.2,233.2,0,0,1,382.74,441.1c-.35.26-.71.51-1.07.76q-3.32,2.33-6.74,4.5c-2.65,1.73-5.35,3.39-8.07,5a233.72,233.72,0,0,1-245-5.13q-3.3-2.12-6.53-4.37A233.63,233.63,0,0,1,45.72,134.19a233.56,233.56,0,0,0,405.56,0A232.36,232.36,0,0,1,482,250Z" transform="translate(-15 -16.53)"/><path d="M382.74,441.1h0q-3.84,2.72-7.81,5.25c-2.65,1.73-5.35,3.39-8.07,5l-74.09-74.09a41.55,41.55,0,0,0-58.74,0l-53.6,53.61a60.07,60.07,0,0,1-58.57,15.35q-3.3-2.12-6.53-4.37a233.69,233.69,0,0,1-29.8-24.61,56.2,56.2,0,0,1,10-65.72l70.17-70.16,6.53,6.54,6.54,6.52L109.26,364c-13.55,13.55-15.73,35.44-3.73,50.37a41.57,41.57,0,0,0,61.82,3.46L220,365.19c9.18-9.19,20.85-15.8,33.68-17.81a59.92,59.92,0,0,1,52.18,16.81Z" transform="translate(-15 -16.53)"/><path d="M382.74,441.1h0q-3.84,2.72-7.81,5.25L299.3,370.73a50.75,50.75,0,0,0-71.79,0l-53.62,53.62a50.79,50.79,0,0,1-75.33-3.92c-15.19-18.63-12.75-46.07,4.25-63.07l69.45-69.45,6.54,6.52L109.26,364c-13.55,13.55-15.73,35.44-3.73,50.37a41.57,41.57,0,0,0,61.82,3.46L220,365.19c9.18-9.19,20.85-15.8,33.68-17.81a59.92,59.92,0,0,1,52.18,16.81Z" transform="translate(-15 -16.53)"/><path d="M290.72,219,186.41,323.29a34.93,34.93,0,0,1-18.91,9.76C156,335,145.19,339.74,137,348l-1,1a17.5,17.5,0,0,1-26.83-2.47c-4.92-7-3.48-16.73,2.59-22.8l.5-.5c8.24-8.24,13-19.06,14.93-30.55a34.79,34.79,0,0,1,9.76-18.91L241.19,169.44Z" transform="translate(-15 -16.53)"/><path d="M369.26,178.17l-64.95,65a1.73,1.73,0,0,1-2.44,0L217,158.29a1.72,1.72,0,0,1,0-2.43l64.34-64.34c24.3-24.31,63.82-24.64,87.88-.62.69.69,1.37,1.39,2,2.12a61.71,61.71,0,0,1-2,85.15Z" transform="translate(-15 -16.53)"/><path d="M322.59,224.84,272.9,274.53a20.9,20.9,0,0,1-29.55,0l-57.71-57.72a20.9,20.9,0,0,1,0-29.55l49.68-49.68Z" transform="translate(-15 -16.53)"/><path class="cls-2" d="M323.77,154.26,298.23,179.8l-17.87-17.87,25.54-25.54-16.83-16.83-37.51,37.51,51.53,51.53,37.51-37.51ZM307.94,102.7l15.83,15.82,17.08-17.08A36.54,36.54,0,0,0,307.94,102.7Zm50.78,16.61-17.08,17.08,15.83,15.83a36.54,36.54,0,0,0,1.25-32.91Z" transform="translate(-15 -16.53)"/><path class="cls-2" d="M357.47,152.22l-15.83-15.83,17.08-17.08a36.54,36.54,0,0,1-1.25,32.91Z" transform="translate(-15 -16.53)"/><path class="cls-2" d="M340.6,171.09,303.09,208.6l-25.76-25.76,12-12,8.93,8.93,25.54-25.54Z" transform="translate(-15 -16.53)"/><path class="cls-3" d="M354.75,236.46l-34.1,34.1a21.76,21.76,0,0,1-30.76,0L189.6,170.27a21.75,21.75,0,0,1,0-30.75l34.1-34.1a21.75,21.75,0,0,1,30.75,0L359,210c8.91,8.91,7,20.81-4.29,26.45Z" transform="translate(-15 -16.53)"/><path d="M186.41,323.29a34.93,34.93,0,0,1-18.91,9.76C156,335,145.19,339.74,137,348l-1,1a17.5,17.5,0,0,1-26.83-2.47c-4.92-7-3.48-16.73,2.59-22.8l.5-.5c8.24-8.24,13-19.06,14.93-30.55a34.79,34.79,0,0,1,9.76-18.91Z" transform="translate(-15 -16.53)"/></svg>